<?xml version="1.0" encoding="UTF-8"?>
<svg id="Capa_2" data-name="Capa 2" xmlns="http://www.w3.org/2000/svg" viewBox="0 0 1056 949.84">
  <defs>
    <style>
      .cls-1 {
        stroke: #065c67;
        stroke-miterlimit: 10;
        stroke-width: 8px;
      }

      .cls-1, .cls-2 {
        fill: #065c67;
      }
    </style>
  </defs>
  <path class="cls-2" d="M834.15,118.84s-55.78-4.72-99.02,17.44C735.12,136.28,669.71,1.1,488.74,0c-180.97-1.09-252.2,127.19-252.2,127.19,0,0-10.9,17.81-25.44,59.23,0,0-138.09-10.9-194.42,127.19-56.33,138.09,47.97,222.76,47.97,222.76,0,0,62.87,55.24,124.28,56.69h157.71v61.96h-64.68l150.81,200.23,155.17-198.78h-70.14v-64.5h53.06v-115.2h-36.34l89.76-119.56,92.67,118.1h-35.98l-.55,117.74h170.61s204.41-19.9,204.95-239.3c.55-219.4-221.85-234.93-221.85-234.93Zm13.63,441.52l-136.82,.55v-55.42h66.5l-152.63-202.04-154.26,204.95h69.23v52.51h-50.69v123.55h38.9l-92.86,122.65-94.3-119.92h37.07v-126.28H185.49s-143.9-13.08-152.63-170.07c-8.72-156.99,153.17-173.88,153.17-173.88h47.97S260.71,40.89,475.48,30.53c0,0,158.08-18.53,244.2,139.54,0,0,239.84-87.21,302.53,147.17,0,0,46.88,188.06-174.43,243.11Z"/>
  <g>
    <path class="cls-1" d="M519.1,306.34v-5.14c3.29,1.42,6.41,2.4,9.35,2.95s6.61,.82,11,.82c5.07,0,9.31-1.01,12.71-3.02s5.9-4.61,7.5-7.81,2.4-6.6,2.4-10.21c0-6.53-2.33-11.47-6.99-14.8-4.66-3.33-11.31-5-19.94-5h-5.21v-5.07h2.54c6.26,0,11.34-.99,15.25-2.98s6.69-4.54,8.36-7.64,2.5-6.44,2.5-10c0-5.34-1.76-9.58-5.28-12.71s-8.41-4.7-14.66-4.7c-5.39,0-11.42,1.37-18.09,4.11v-5.07c2.51-1.19,5.53-2.16,9.05-2.91s6.76-1.13,9.73-1.13c7.63,0,13.73,2.01,18.3,6.03,4.57,4.02,6.85,9.43,6.85,16.24,0,5.39-1.56,10.14-4.69,14.25-3.13,4.11-7.73,6.94-13.81,8.5v.27c6.76,.32,12.12,2.5,16.07,6.55s5.93,9.35,5.93,15.93c0,8.09-2.68,14.48-8.05,19.19s-12.6,7.06-21.69,7.06c-7.49,0-13.86-1.23-19.12-3.7Z"/>
    <path class="cls-1" d="M582.01,249.81c0-10,2.58-18.14,7.74-24.39s11.97-9.39,20.42-9.39,15.41,3.08,20.59,9.25c5.19,6.17,7.78,14.34,7.78,24.53s-2.65,17.88-7.95,24.16c-5.3,6.28-12.11,9.42-20.42,9.42s-15.43-3.02-20.52-9.08-7.64-14.22-7.64-24.5Zm50.64,0c0-8.68-2.06-15.67-6.17-20.97-4.11-5.3-9.55-7.95-16.31-7.95s-12.16,2.63-16.21,7.88-6.06,12.27-6.06,21.04,2.02,15.74,6.06,20.9,9.44,7.74,16.21,7.74,12.37-2.58,16.41-7.74c4.04-5.16,6.06-12.13,6.06-20.9Z"/>
    <path class="cls-1" d="M651.22,217.95c0-9.46,1.47-16.77,4.42-21.96,2.95-5.19,7.12-7.78,12.51-7.78s9.7,2.51,12.78,7.54c3.08,5.03,4.63,12.43,4.63,22.2s-1.54,17.34-4.63,22.41-7.34,7.61-12.78,7.61-9.62-2.63-12.54-7.88-4.39-12.63-4.39-22.13Zm29.19,0c0-16.63-4.09-24.94-12.27-24.94s-11.79,8.31-11.79,24.94,3.93,25.42,11.79,25.42,12.27-8.47,12.27-25.42Zm-11.03,64.69l-3.63-2.54,67.09-89.9,3.77,2.81-67.22,89.63Zm47.83-30.15c0-9.46,1.47-16.77,4.42-21.96s7.12-7.78,12.51-7.78,9.7,2.51,12.78,7.54c3.08,5.03,4.63,12.43,4.63,22.2s-1.54,17.34-4.63,22.41c-3.08,5.07-7.34,7.61-12.78,7.61s-9.62-2.63-12.54-7.88-4.39-12.63-4.39-22.13Zm29.19,0c0-16.63-4.09-24.94-12.27-24.94s-11.79,8.31-11.79,24.94,3.93,25.42,11.79,25.42,12.27-8.47,12.27-25.42Z"/>
  </g>
  <g>
    <path class="cls-1" d="M289.93,943.39v-5.21h22.13v-52.9l-24.94,8.29v-5.48l25.22-8.7h5.34v58.79h16.72v5.21h-44.47Z"/>
    <path class="cls-1" d="M344.34,911.52c0-10,2.58-18.14,7.74-24.39,5.16-6.26,11.97-9.39,20.42-9.39s15.41,3.08,20.59,9.25,7.78,14.34,7.78,24.53-2.65,17.87-7.95,24.15c-5.3,6.28-12.11,9.42-20.42,9.42s-15.43-3.03-20.52-9.08c-5.09-6.05-7.64-14.22-7.64-24.5Zm50.64,0c0-8.68-2.06-15.67-6.17-20.97s-9.55-7.95-16.31-7.95-12.16,2.63-16.21,7.88-6.06,12.27-6.06,21.04,2.02,15.74,6.06,20.9c4.04,5.16,9.44,7.74,16.21,7.74s12.37-2.58,16.41-7.74c4.04-5.16,6.06-12.13,6.06-20.9Z"/>
    <path class="cls-1" d="M416.36,911.52c0-10,2.58-18.14,7.74-24.39,5.16-6.26,11.97-9.39,20.42-9.39s15.41,3.08,20.59,9.25c5.19,6.17,7.78,14.34,7.78,24.53s-2.65,17.87-7.95,24.15c-5.3,6.28-12.11,9.42-20.42,9.42s-15.43-3.03-20.52-9.08c-5.09-6.05-7.64-14.22-7.64-24.5Zm50.64,0c0-8.68-2.06-15.67-6.17-20.97s-9.55-7.95-16.31-7.95-12.16,2.63-16.21,7.88-6.06,12.27-6.06,21.04,2.02,15.74,6.06,20.9,9.44,7.74,16.21,7.74,12.37-2.58,16.41-7.74c4.04-5.16,6.06-12.13,6.06-20.9Z"/>
    <path class="cls-1" d="M485.57,879.66c0-9.46,1.47-16.78,4.42-21.96,2.95-5.19,7.12-7.78,12.51-7.78s9.7,2.51,12.78,7.54,4.63,12.43,4.63,22.2-1.54,17.34-4.63,22.41-7.34,7.61-12.78,7.61-9.62-2.63-12.54-7.88-4.39-12.63-4.39-22.13Zm29.19,0c0-16.63-4.09-24.94-12.27-24.94s-11.79,8.31-11.79,24.94,3.93,25.42,11.79,25.42,12.27-8.47,12.27-25.42Zm-11.03,64.69l-3.63-2.54,67.09-89.9,3.77,2.81-67.22,89.63Zm47.83-30.15c0-9.46,1.47-16.78,4.42-21.96,2.95-5.19,7.12-7.78,12.51-7.78s9.7,2.51,12.78,7.54c3.08,5.03,4.63,12.43,4.63,22.2s-1.54,17.34-4.63,22.41-7.34,7.61-12.78,7.61-9.62-2.63-12.54-7.88-4.39-12.63-4.39-22.13Zm29.19,0c0-16.63-4.09-24.94-12.27-24.94s-11.79,8.31-11.79,24.94,3.93,25.42,11.79,25.42,12.27-8.47,12.27-25.42Z"/>
  </g>
</svg>