<?xml version="1.0" encoding="UTF-8"?>
<svg id="Capa_2" data-name="Capa 2" xmlns="http://www.w3.org/2000/svg" viewBox="0 0 2272.89 1226.55">
  <defs>
    <style>
      .cls-1, .cls-2 {
        fill: #065c67;
      }

      .cls-2 {
        stroke: #065c67;
        stroke-miterlimit: 10;
        stroke-width: 10px;
      }
    </style>
  </defs>
  <g >
    <ellipse class="cls-1" cx="613.29" cy="964.06" rx="57.72" ry="60.77"/>
    <g>
      <ellipse class="cls-1" cx="497.86" cy="827.19" rx="57.72" ry="60.77"/>
      <ellipse class="cls-1" cx="729.67" cy="829.19" rx="57.72" ry="60.77"/>
      <path class="cls-1" d="M453.47,788.35s55.08-66.84,159.82-68.54,158.78,68.15,158.78,68.15l-80.63,86.75s-40.85-32.35-78.67-29.8-86.57,35.22-86.57,35.22l-72.72-91.79Z"/>
    </g>
    <g>
      <ellipse class="cls-1" cx="351.16" cy="672.36" rx="57.72" ry="60.77"/>
      <ellipse class="cls-1" cx="875.92" cy="673.36" rx="57.72" ry="60.77"/>
      <path class="cls-1" d="M314.62,625.32s121.01-122.88,298.67-120.83c177.65,2.04,302.98,125.43,302.98,125.43l-79.24,88.35s-88.57-92.24-223.75-90.71c-135.18,1.53-224.31,90.71-224.31,90.71l-74.36-92.94Z"/>
    </g>
    <g>
      <ellipse class="cls-1" cx="175.97" cy="536.13" rx="57.72" ry="60.77"/>
      <ellipse class="cls-1" cx="1051.03" cy="536.13" rx="57.72" ry="60.77"/>
      <path class="cls-1" d="M130.98,498.07s150.42-224.39,482.31-224.39,483.86,225.92,483.86,225.92l-89.9,76.13s-132.97-179.49-391.8-176.43c-258.83,3.06-390.94,169.72-390.94,169.72l-93.53-70.96Z"/>
    </g>
  </g>
  <g>
    <g>
      <g>
        <circle class="cls-1" cx="1889.6" cy="423.65" r="34.49"/>
        <circle class="cls-1" cx="2107.53" cy="649.19" r="34.49"/>
        <path class="cls-1" d="M1893.57,389.38s100.42,3.36,173.51,80.39c73.09,77.03,74.95,179.56,74.95,179.56l-68.97,.92s.74-74.45-56.13-131.84c-56.87-57.39-130.3-60.39-130.3-60.39l6.94-68.63Z"/>
      </g>
      <g>
        <circle class="cls-1" cx="1872.23" cy="294.65" r="34.49"/>
        <circle class="cls-1" cx="2236.32" cy="670.08" r="34.49"/>
        <path class="cls-1" d="M1869.02,260.3s154.02-24.14,292.11,118.25c138.09,142.39,109.26,296.88,109.26,296.88l-68.43-8.49s17.81-127.98-91.13-237.82c-108.94-109.84-231.82-100.65-231.82-100.65l-10-68.17Z"/>
      </g>
    </g>
    <path class="cls-1" d="M1774.2,635.27c-1.02-1.82-1.97-3.61-2.84-5.38,0,0-10.07-17.12,1.42-34.24,11.48-17.12,36.48-43.44,36.48-43.44,0,0,22.08-15.92,3.32-47.87-18.76-31.95-98.58-164.36-98.58-164.36,0,0-29.68-47.01-93.74-27.22-64.06,19.79-112.1,126.69-112.1,126.69,0,0-16.26,66.14,7.06,149.73,23.32,83.59,168.31,246.44,168.31,246.44l10.38,9.11s156.7,151.61,239.26,178.36c82.56,26.75,149.31,13.25,149.31,13.25,0,0,108.8-43.57,131.22-106.76,22.42-63.19-23.31-94.79-23.31-94.79,0,0-128.99-85.23-160.14-105.3-31.15-20.07-47.97,1.34-47.97,1.34,0,0-27.33,23.89-44.91,34.65-17.58,10.77-34.27,0-34.27,0-52.23-28.54-128.93-130.2-128.93-130.2l.04-.02Z"/>
  </g>
  <g>
    <rect class="cls-2" x="1280.9" y="522.73" width="49.59" height="253.06" rx="24.79" ry="24.79"/>
    <rect class="cls-2" x="1280.9" y="522.73" width="49.59" height="253.06" rx="24.79" ry="24.79" transform="translate(1954.95 -656.44) rotate(90)"/>
  </g>
</svg>